<svg width="560" height="150" viewBox="0 0 560 150" fill="none" xmlns="http://www.w3.org/2000/svg" role="img" aria-labelledby="title desc">
  <title id="title">Permis-Go</title>
  <desc id="desc">Logo Permis-Go avec route, fleche verte et texte bleu vert.</desc>
  <g>
    <path d="M82 17c-34.8 0-63 28.2-63 63 0 13.3 4.1 25.6 11.2 35.8l19.1-16.4A38.6 38.6 0 1 1 105 48.6l22.9-9.8A62.8 62.8 0 0 0 82 17Z" fill="#1557C8"/>
    <path d="M20.8 132.5c2.1-39.8 24.5-67.7 67.8-85.2l8.3 15.8C59.5 78.9 42.2 101.8 39.8 132.5h-19Z" fill="#082357"/>
    <path d="M48.9 132.5c2.2-27.5 16.2-47.3 42.9-60.5l7.8 14.8c-20.2 10.5-30.8 25.3-32.6 45.7H48.9Z" fill="#082357"/>
    <path d="M80.5 57.8 139.7 27l-16.6 64.5-12.7-22.7-25.8 13.1-4.1-24.1Z" fill="#38A71F"/>
    <path d="M54.5 85.3c6.7-5.2 14.7-9.9 24-14.1" stroke="white" stroke-width="5" stroke-linecap="round" stroke-dasharray="16 14"/>
    <path d="M55.5 104.8c-2.4 6.8-3.9 14.2-4.6 22" stroke="white" stroke-width="5" stroke-linecap="round"/>
  </g>
  <g>
    <text x="160" y="91" fill="#082357" font-family="Montserrat, Arial, sans-serif" font-size="64" font-weight="800">Permis</text>
    <text x="374" y="91" fill="#082357" font-family="Montserrat, Arial, sans-serif" font-size="64" font-weight="800">-</text>
    <text x="410" y="91" fill="#38A71F" font-family="Montserrat, Arial, sans-serif" font-size="64" font-weight="800">Go</text>
    <path d="M162 111h34" stroke="#1557C8" stroke-width="4" stroke-linecap="round"/>
    <text x="250" y="118" fill="#082357" font-family="Montserrat, Arial, sans-serif" font-size="20" font-weight="800" letter-spacing=".4">réussis ton permis</text>
    <path d="M515 111h34" stroke="#38A71F" stroke-width="4" stroke-linecap="round"/>
  </g>
</svg>
